<svg width="24" height="24" viewBox="0 0 24 24" fill="none" xmlns="http://www.w3.org/2000/svg">
<path d="M23.8475 11.5332C23.6331 11.2399 18.5245 4.35168 11.9999 4.35168C5.47529 4.35168 0.366469 11.2399 0.152297 11.533C-0.0507657 11.8112 -0.0507657 12.1886 0.152297 12.4668C0.366469 12.7601 5.47529 19.6484 11.9999 19.6484C18.5245 19.6484 23.6331 12.7601 23.8475 12.4671C24.0508 12.1889 24.0508 11.8112 23.8475 11.5332ZM11.9999 18.066C7.19383 18.066 3.03127 13.4941 1.79907 11.9995C3.02968 10.5036 7.18351 5.93409 11.9999 5.93409C16.8057 5.93409 20.968 10.5052 22.2007 12.0006C20.9701 13.4965 16.8163 18.066 11.9999 18.066Z" fill="#2395FF"/>
<path d="M11.9998 7.25281C9.38224 7.25281 7.25256 9.38248 7.25256 12.0001C7.25256 14.6177 9.38224 16.7474 11.9998 16.7474C14.6174 16.7474 16.7471 14.6177 16.7471 12.0001C16.7471 9.38248 14.6174 7.25281 11.9998 7.25281ZM11.9998 15.1649C10.2547 15.1649 8.83502 13.7452 8.83502 12.0001C8.83502 10.255 10.2547 8.83526 11.9998 8.83526C13.7449 8.83526 15.1646 10.255 15.1646 12.0001C15.1646 13.7452 13.745 15.1649 11.9998 15.1649Z" fill="#2395FF"/>
</svg>
