<svg width="25" height="25" viewBox="0 0 25 25" fill="none" xmlns="http://www.w3.org/2000/svg">
<path d="M12.1233 14.2027C12.8586 14.2027 13.4493 13.606 13.4493 12.8766C13.4493 12.1473 12.8587 11.5506 12.1233 11.5506C11.394 11.5506 10.7972 12.1473 10.7972 12.8766C10.7972 13.606 11.394 14.2027 12.1233 14.2027Z" fill="white"/>
<path d="M12.1233 0.821899C5.46304 0.821899 0.0684814 6.21646 0.0684814 12.8767C0.0684814 19.531 5.46304 24.9315 12.1233 24.9315C18.7836 24.9315 24.1781 19.531 24.1781 12.8767C24.1782 6.21646 18.7836 0.821899 12.1233 0.821899ZM14.7633 15.5167L4.8904 20.1096L9.48329 10.2367L19.3562 5.64381L14.7633 15.5167Z" fill="white"/>
</svg>
