<svg width="20" height="18" viewBox="0 0 20 18" fill="none" xmlns="http://www.w3.org/2000/svg">
<path d="M19.1016 15.6H1.02153C0.758655 15.6 0.545739 15.8685 0.545739 16.2V17.4C0.545739 17.7315 0.758655 18 1.02153 18H19.1016C19.3644 18 19.5774 17.7315 19.5774 17.4V16.2C19.5774 15.8685 19.3644 15.6 19.1016 15.6ZM2.94105 11.5977C3.12779 11.8542 3.39007 11.9997 3.66454 11.9993L7.5464 11.9926C7.85275 11.9921 8.15469 11.9006 8.4278 11.7256L17.08 6.1888C17.8752 5.67993 18.588 4.95357 19.073 4.00221C19.6175 2.93423 19.6767 2.16136 19.4617 1.61537C19.2473 1.069 18.726 0.66776 17.7295 0.586011C16.8419 0.513263 15.959 0.808008 15.1638 1.3165L12.2344 3.1911L5.73096 0.113894C5.65277 0.0474663 5.56192 0.00858352 5.46782 0.00126566C5.37372 -0.0060522 5.27977 0.0184604 5.1957 0.0722692L3.2405 1.32363C2.9232 1.5265 2.84648 2.06049 3.08676 2.39348L7.73225 6.07218L4.66311 8.0364L2.51165 6.6688C2.43752 6.62167 2.35565 6.59718 2.27264 6.59731C2.18963 6.59744 2.1078 6.62219 2.03377 6.66955L0.840431 7.43341C0.529978 7.63216 0.448202 8.1504 0.674797 8.48639L2.94105 11.5977Z" fill="white"/>
</svg>
