<svg width="22" height="22" viewBox="0 0 22 22" fill="none" xmlns="http://www.w3.org/2000/svg">
<path d="M19.9375 11.0431H2.0625C1.51549 11.0431 0.990886 11.2842 0.604092 11.7135C0.217298 12.1427 0 12.7249 0 13.3319C0 13.9389 0.217298 14.5211 0.604092 14.9503C0.990886 15.3795 1.51549 15.6207 2.0625 15.6207H19.9375C20.4845 15.6207 21.0091 15.3795 21.3959 14.9503C21.7827 14.5211 22 13.9389 22 13.3319C22 12.7249 21.7827 12.1427 21.3959 11.7135C21.0091 11.2842 20.4845 11.0431 19.9375 11.0431ZM20.625 17.1465H1.375C1.19266 17.1465 1.0178 17.2269 0.888864 17.37C0.759933 17.5131 0.6875 17.7071 0.6875 17.9095V18.6724C0.6875 19.4818 0.977231 20.258 1.49296 20.8303C2.00868 21.4026 2.70815 21.7241 3.4375 21.7241H18.5625C19.2918 21.7241 19.9913 21.4026 20.507 20.8303C21.0228 20.258 21.3125 19.4818 21.3125 18.6724V17.9095C21.3125 17.7071 21.2401 17.5131 21.1111 17.37C20.9822 17.2269 20.8073 17.1465 20.625 17.1465ZM2.51969 9.51723H19.4803C20.9657 9.51723 21.8273 7.42394 20.9765 5.89903C19.25 2.80344 15.4494 0.366829 11 0.362061C6.55102 0.366829 2.75 2.80344 1.02352 5.89855C0.171875 7.42346 1.03426 9.51723 2.51969 9.51723ZM16.5 4.17671C16.636 4.17671 16.7689 4.22146 16.882 4.30529C16.995 4.38912 17.0831 4.50828 17.1352 4.64768C17.1872 4.78709 17.2008 4.94049 17.1743 5.08849C17.1478 5.23648 17.0823 5.37242 16.9861 5.47912C16.89 5.58582 16.7675 5.65848 16.6341 5.68792C16.5008 5.71735 16.3625 5.70225 16.2369 5.6445C16.1113 5.58676 16.0039 5.48897 15.9284 5.36351C15.8528 5.23804 15.8125 5.09054 15.8125 4.93964C15.8125 4.7373 15.8849 4.54325 16.0139 4.40017C16.1428 4.25709 16.3177 4.17671 16.5 4.17671ZM11 2.65085C11.136 2.65085 11.2689 2.6956 11.382 2.77943C11.495 2.86326 11.5831 2.98242 11.6352 3.12182C11.6872 3.26123 11.7008 3.41463 11.6743 3.56262C11.6478 3.71062 11.5823 3.84656 11.4861 3.95326C11.39 4.05995 11.2675 4.13262 11.1341 4.16205C11.0008 4.19149 10.8625 4.17638 10.7369 4.11864C10.6113 4.0609 10.5039 3.96311 10.4284 3.83765C10.3528 3.71218 10.3125 3.56468 10.3125 3.41378C10.3125 3.21144 10.3849 3.01739 10.5139 2.87431C10.6428 2.73123 10.8177 2.65085 11 2.65085ZM5.5 4.17671C5.63597 4.17671 5.7689 4.22146 5.88195 4.30529C5.99501 4.38912 6.08313 4.50828 6.13517 4.64768C6.1872 4.78709 6.20082 4.94049 6.17429 5.08849C6.14776 5.23648 6.08228 5.37242 5.98614 5.47912C5.88999 5.58582 5.76749 5.65848 5.63412 5.68792C5.50076 5.71735 5.36253 5.70225 5.23691 5.6445C5.11128 5.58676 5.00391 5.48897 4.92836 5.36351C4.85282 5.23804 4.8125 5.09054 4.8125 4.93964C4.8125 4.7373 4.88493 4.54325 5.01386 4.40017C5.1428 4.25709 5.31766 4.17671 5.5 4.17671Z" fill="white"/>
</svg>
