<svg width="310" height="231" viewBox="0 0 310 231" fill="none" xmlns="http://www.w3.org/2000/svg">
<path d="M14.5412 223.268C17.8577 228.206 22.5157 231.007 27.3902 231L96.3303 230.87C101.771 230.86 107.133 229.099 111.984 225.73L265.644 119.141C279.766 109.345 292.425 95.3615 301.038 77.0468C310.708 56.487 311.759 41.6085 307.941 31.0976C304.133 20.5795 294.875 12.8551 277.178 11.2813C261.414 9.88085 245.734 15.555 231.612 25.344L179.588 61.432L64.0889 2.19257C62.7002 0.913776 61.0868 0.165242 59.4156 0.0243653C57.7444 -0.116511 56.0759 0.355383 54.5828 1.39126L19.8593 25.4812C14.2243 29.3867 12.8618 39.6666 17.1289 46.0771L99.631 116.896L45.1243 154.709L6.91518 128.381C5.59878 127.474 4.14476 127.003 2.67052 127.005C1.19627 127.008 -0.256884 127.484 -1.57163 128.396L-22.7649 143.101C-28.2784 146.927 -29.7307 156.904 -25.7065 163.372L14.5412 223.268Z" fill="#41A4FF"/>
</svg>
