<svg width="27" height="20" viewBox="0 0 27 20" fill="none" xmlns="http://www.w3.org/2000/svg">
<path d="M4.26334 5.22838C5.831 5.22838 7.10557 4.14498 7.10557 2.81243C7.10557 1.47989 5.831 0.396484 4.26334 0.396484C2.69567 0.396484 1.42111 1.47989 1.42111 2.81243C1.42111 4.14498 2.69567 5.22838 4.26334 5.22838ZM21.3167 5.22838C22.8844 5.22838 24.1589 4.14498 24.1589 2.81243C24.1589 1.47989 22.8844 0.396484 21.3167 0.396484C19.749 0.396484 18.4745 1.47989 18.4745 2.81243C18.4745 4.14498 19.749 5.22838 21.3167 5.22838ZM26.9701 13.7786L24.945 6.76477C24.7984 6.25516 24.2566 5.89654 23.6216 5.85124C22.9554 6.21741 22.1649 6.43635 21.3123 6.43635C20.4596 6.43635 19.6691 6.21741 19.0029 5.85124C18.3679 5.89654 17.8261 6.25516 17.6795 6.76477L15.6544 13.7786C15.499 14.3486 16.0319 14.8922 16.7514 14.8922H19.185V18.8181C19.185 19.3201 19.6602 19.7241 20.2509 19.7241H22.3825C22.9732 19.7241 23.4484 19.3201 23.4484 18.8181V14.8922H25.882C26.6015 14.8922 27.1344 14.3486 26.9701 13.7786ZM13.5006 0.396484H12.0795C11.6887 0.396484 11.3689 0.668278 11.3689 1.00047V19.1201C11.3689 19.4523 11.6887 19.7241 12.0795 19.7241H13.5006C13.8914 19.7241 14.2111 19.4523 14.2111 19.1201V1.00047C14.2111 0.668278 13.8914 0.396484 13.5006 0.396484ZM6.57709 5.84746C5.91094 6.21741 5.11601 6.43635 4.26334 6.43635C3.41067 6.43635 2.61574 6.21741 1.94959 5.84746C0.857109 5.92674 0 6.69682 0 7.64433V12.7782C0 13.2803 0.475185 13.6842 1.06583 13.6842H1.42111V18.8181C1.42111 19.3201 1.8963 19.7241 2.48695 19.7241H6.03973C6.63038 19.7241 7.10557 19.3201 7.10557 18.8181V13.6842H7.46084C8.05149 13.6842 8.52668 13.2803 8.52668 12.7782V7.64433C8.52668 6.69682 7.66957 5.92674 6.57709 5.84746Z" fill="white"/>
</svg>
