<svg width="22" height="19" viewBox="0 0 22 19" fill="none" xmlns="http://www.w3.org/2000/svg">
<path d="M21.825 5.40154C15.7348 -1.29604 6.26276 -1.29359 0.17494 5.40154C-0.053998 5.65331 -0.0584668 6.0796 0.162908 6.34077L1.33991 7.72917C1.55097 7.97848 1.8906 7.9838 2.10991 7.7447C7.12591 2.28102 14.8734 2.27979 19.8904 7.7447C20.1097 7.9838 20.4493 7.97807 20.6604 7.72917L21.8374 6.34077C22.0584 6.0796 22.054 5.65331 21.825 5.40154ZM11 13.4581C9.78482 13.4581 8.79998 14.6291 8.79998 16.0739C8.79998 17.5187 9.78482 18.6896 11 18.6896C12.2151 18.6896 13.2 17.5187 13.2 16.0739C13.2 14.6291 12.2151 13.4581 11 13.4581ZM17.9668 10.0417C14.0047 5.87565 7.99079 5.88015 4.03319 10.0417C3.796 10.291 3.78844 10.7238 4.0136 10.9878L5.19747 12.3771C5.40372 12.619 5.73579 12.6354 5.95544 12.4098C8.84123 9.44372 13.1653 9.45026 16.0442 12.4098C16.2638 12.6354 16.5959 12.6194 16.8021 12.3771L17.986 10.9878C18.2115 10.7238 18.2036 10.2906 17.9668 10.0417Z" fill="white"/>
</svg>
